<svg width="1801" height="63" viewBox="0 0 1801 63" fill="none" xmlns="http://www.w3.org/2000/svg">
<rect width="15.521" height="15.521" fill="#CE1E20"/>
<rect x="500.347" width="15.521" height="15.521" fill="#CE1E20"/>
<rect x="249.969" width="15.521" height="15.521" fill="#CE1E20"/>
<rect x="750.317" width="15.521" height="15.521" fill="#CE1E20"/>
<rect x="125.393" width="15.521" height="15.521" fill="#CE1E20"/>
<rect x="625.741" width="15.521" height="15.521" fill="#CE1E20"/>
<rect x="374.954" width="15.521" height="15.521" fill="#CE1E20"/>
<rect x="875.302" width="15.521" height="15.521" fill="#CE1E20"/>
<rect x="62.9009" width="15.521" height="15.521" fill="#CE1E20"/>
<rect x="563.248" width="15.521" height="15.521" fill="#CE1E20"/>
<rect x="312.462" width="15.521" height="15.521" fill="#CE1E20"/>
<rect x="812.809" width="15.521" height="15.521" fill="#CE1E20"/>
<rect x="187.886" width="15.521" height="15.521" fill="#CE1E20"/>
<rect x="688.233" width="15.521" height="15.521" fill="#CE1E20"/>
<rect x="437.855" width="15.521" height="15.521" fill="#CE1E20"/>
<rect x="938.203" width="15.521" height="15.521" fill="#CE1E20"/>
<rect x="31.4504" width="15.521" height="15.521" fill="#CE1E20"/>
<rect x="531.798" width="15.521" height="15.521" fill="#CE1E20"/>
<rect x="281.011" width="15.9294" height="15.521" fill="#CE1E20"/>
<rect x="781.359" width="15.9294" height="15.521" fill="#CE1E20"/>
<rect x="156.844" width="15.521" height="15.521" fill="#CE1E20"/>
<rect x="657.191" width="15.521" height="15.521" fill="#CE1E20"/>
<rect x="406.405" width="15.521" height="15.521" fill="#CE1E20"/>
<rect x="906.752" width="15.521" height="15.521" fill="#CE1E20"/>
<rect x="93.9429" width="15.9294" height="15.521" fill="#CE1E20"/>
<rect x="594.29" width="15.9294" height="15.521" fill="#CE1E20"/>
<rect x="343.504" width="15.9294" height="15.521" fill="#CE1E20"/>
<rect x="843.851" width="15.9294" height="15.521" fill="#CE1E20"/>
<rect x="219.336" width="15.521" height="15.521" fill="#CE1E20"/>
<rect x="719.684" width="15.521" height="15.521" fill="#CE1E20"/>
<rect x="468.897" width="15.9294" height="15.521" fill="#CE1E20"/>
<rect x="969.245" width="15.9294" height="15.521" fill="#CE1E20"/>
<rect x="1000.69" width="15.9294" height="15.521" fill="#CE1E20"/>
<rect x="1032.15" width="15.9294" height="15.521" fill="#CE1E20"/>
<rect x="1063.6" width="15.9294" height="15.521" fill="#CE1E20"/>
<rect x="1095.05" width="15.9294" height="15.521" fill="#CE1E20"/>
<rect x="1126.5" width="15.9294" height="15.521" fill="#CE1E20"/>
<rect x="1157.95" width="15.9294" height="15.521" fill="#CE1E20"/>
<rect x="1189.4" width="15.9294" height="15.521" fill="#CE1E20"/>
<rect x="1220.85" width="15.9294" height="15.521" fill="#CE1E20"/>
<rect x="1252.3" width="15.9294" height="15.521" fill="#CE1E20"/>
<rect x="1283.75" width="15.9294" height="15.521" fill="#CE1E20"/>
<rect x="1315.2" width="15.9294" height="15.521" fill="#CE1E20"/>
<rect x="1346.65" width="15.9294" height="15.521" fill="#CE1E20"/>
<rect x="1378.1" width="15.9294" height="15.521" fill="#CE1E20"/>
<rect x="1409.55" width="15.9294" height="15.521" fill="#CE1E20"/>
<rect y="31.0417" width="15.521" height="15.9294" fill="#CE1E20"/>
<rect x="500.347" y="31.0417" width="15.521" height="15.9294" fill="#CE1E20"/>
<rect x="249.969" y="31.0417" width="15.521" height="15.9294" fill="#CE1E20"/>
<rect x="750.317" y="31.0417" width="15.521" height="15.9294" fill="#CE1E20"/>
<rect x="125.393" y="31.0417" width="15.521" height="15.9294" fill="#CE1E20"/>
<rect x="625.741" y="31.0417" width="15.521" height="15.9294" fill="#CE1E20"/>
<rect x="374.954" y="31.0417" width="15.521" height="15.9294" fill="#CE1E20"/>
<rect x="875.302" y="31.0417" width="15.521" height="15.9294" fill="#CE1E20"/>
<rect x="62.9009" y="31.0417" width="15.521" height="15.9294" fill="#CE1E20"/>
<rect x="563.248" y="31.0417" width="15.521" height="15.9294" fill="#CE1E20"/>
<rect x="312.462" y="31.0417" width="15.521" height="15.9294" fill="#CE1E20"/>
<rect x="812.809" y="31.0417" width="15.521" height="15.9294" fill="#CE1E20"/>
<rect x="187.886" y="31.0417" width="15.521" height="15.9294" fill="#CE1E20"/>
<rect x="688.233" y="31.0417" width="15.521" height="15.9294" fill="#CE1E20"/>
<rect x="437.855" y="31.0417" width="15.521" height="15.9294" fill="#CE1E20"/>
<rect x="938.203" y="31.0417" width="15.521" height="15.9294" fill="#CE1E20"/>
<rect x="31.4504" y="31.0417" width="15.521" height="15.9294" fill="#CE1E20"/>
<rect x="531.798" y="31.0417" width="15.521" height="15.9294" fill="#CE1E20"/>
<rect x="281.011" y="31.0417" width="15.9294" height="15.9294" fill="#CE1E20"/>
<rect x="781.359" y="31.0417" width="15.9294" height="15.9294" fill="#CE1E20"/>
<rect x="156.844" y="31.0417" width="15.521" height="15.9294" fill="#CE1E20"/>
<rect x="657.191" y="31.0417" width="15.521" height="15.9294" fill="#CE1E20"/>
<rect x="406.405" y="31.0417" width="15.521" height="15.9294" fill="#CE1E20"/>
<rect x="906.752" y="31.0417" width="15.521" height="15.9294" fill="#CE1E20"/>
<rect x="93.9429" y="31.0417" width="15.9294" height="15.9294" fill="#CE1E20"/>
<rect x="594.29" y="31.0417" width="15.9294" height="15.9294" fill="#CE1E20"/>
<rect x="343.504" y="31.0417" width="15.9294" height="15.9294" fill="#CE1E20"/>
<rect x="843.851" y="31.0417" width="15.9294" height="15.9294" fill="#CE1E20"/>
<rect x="219.336" y="31.0417" width="15.521" height="15.9294" fill="#CE1E20"/>
<rect x="719.684" y="31.0417" width="15.521" height="15.9294" fill="#CE1E20"/>
<rect x="468.897" y="31.0417" width="15.9294" height="15.9294" fill="#CE1E20"/>
<rect x="969.245" y="31.0417" width="15.9294" height="15.9294" fill="#CE1E20"/>
<rect x="1000.69" y="31.0417" width="15.9294" height="15.9294" fill="#CE1E20"/>
<rect x="1032.15" y="31.0417" width="15.9294" height="15.9294" fill="#CE1E20"/>
<rect x="1063.6" y="31.0417" width="15.9294" height="15.9294" fill="#CE1E20"/>
<rect x="1095.05" y="31.0417" width="15.9294" height="15.9294" fill="#CE1E20"/>
<rect x="1126.5" y="31.0417" width="15.9294" height="15.9294" fill="#CE1E20"/>
<rect x="1157.95" y="31.0417" width="15.9294" height="15.9294" fill="#CE1E20"/>
<rect x="1189.4" y="31.0417" width="15.9294" height="15.9294" fill="#CE1E20"/>
<rect x="1220.85" y="31.0417" width="15.9294" height="15.9294" fill="#CE1E20"/>
<rect x="1252.3" y="31.0417" width="15.9294" height="15.9294" fill="#CE1E20"/>
<rect x="1283.75" y="31.0417" width="15.9294" height="15.9294" fill="#CE1E20"/>
<rect x="1315.2" y="31.0417" width="15.9294" height="15.9294" fill="#CE1E20"/>
<rect x="1346.65" y="31.0417" width="15.9294" height="15.9294" fill="#CE1E20"/>
<rect x="1378.1" y="31.0417" width="15.9294" height="15.9294" fill="#CE1E20"/>
<rect x="1409.55" y="31.0417" width="15.9294" height="15.9294" fill="#CE1E20"/>
<rect x="15.521" y="15.521" width="15.9294" height="15.521" fill="#CE1E20"/>
<rect x="515.868" y="15.521" width="15.9294" height="15.521" fill="#CE1E20"/>
<rect x="265.49" y="15.521" width="15.521" height="15.521" fill="#CE1E20"/>
<rect x="765.838" y="15.521" width="15.521" height="15.521" fill="#CE1E20"/>
<rect x="140.914" y="15.521" width="15.9294" height="15.521" fill="#CE1E20"/>
<rect x="641.262" y="15.521" width="15.9294" height="15.521" fill="#CE1E20"/>
<rect x="390.475" y="15.521" width="15.9294" height="15.521" fill="#CE1E20"/>
<rect x="890.823" y="15.521" width="15.9294" height="15.521" fill="#CE1E20"/>
<rect x="78.4219" y="15.521" width="15.521" height="15.521" fill="#CE1E20"/>
<rect x="578.769" y="15.521" width="15.521" height="15.521" fill="#CE1E20"/>
<rect x="327.983" y="15.521" width="15.521" height="15.521" fill="#CE1E20"/>
<rect x="828.33" y="15.521" width="15.521" height="15.521" fill="#CE1E20"/>
<rect x="203.406" y="15.521" width="15.9294" height="15.521" fill="#CE1E20"/>
<rect x="703.754" y="15.521" width="15.9294" height="15.521" fill="#CE1E20"/>
<rect x="453.376" y="15.521" width="15.521" height="15.521" fill="#CE1E20"/>
<rect x="953.724" y="15.521" width="15.521" height="15.521" fill="#CE1E20"/>
<rect x="46.9714" y="15.521" width="15.9294" height="15.521" fill="#CE1E20"/>
<rect x="547.319" y="15.521" width="15.9294" height="15.521" fill="#CE1E20"/>
<rect x="296.941" y="15.521" width="15.521" height="15.521" fill="#CE1E20"/>
<rect x="797.288" y="15.521" width="15.521" height="15.521" fill="#CE1E20"/>
<rect x="172.365" y="15.521" width="15.521" height="15.521" fill="#CE1E20"/>
<rect x="672.712" y="15.521" width="15.521" height="15.521" fill="#CE1E20"/>
<rect x="421.926" y="15.521" width="15.9294" height="15.521" fill="#CE1E20"/>
<rect x="922.273" y="15.521" width="15.9294" height="15.521" fill="#CE1E20"/>
<rect x="109.872" y="15.521" width="15.521" height="15.521" fill="#CE1E20"/>
<rect x="610.22" y="15.521" width="15.521" height="15.521" fill="#CE1E20"/>
<rect x="359.433" y="15.521" width="15.521" height="15.521" fill="#CE1E20"/>
<rect x="859.781" y="15.521" width="15.521" height="15.521" fill="#CE1E20"/>
<rect x="234.857" y="15.521" width="15.521" height="15.521" fill="#CE1E20"/>
<rect x="735.205" y="15.521" width="15.521" height="15.521" fill="#CE1E20"/>
<rect x="484.826" y="15.521" width="15.521" height="15.521" fill="#CE1E20"/>
<rect x="985.174" y="15.521" width="15.521" height="15.521" fill="#CE1E20"/>
<rect x="1016.62" y="15.521" width="15.521" height="15.521" fill="#CE1E20"/>
<rect x="1048.07" y="15.521" width="15.521" height="15.521" fill="#CE1E20"/>
<rect x="1079.53" y="15.521" width="15.521" height="15.521" fill="#CE1E20"/>
<rect x="1110.98" y="15.521" width="15.521" height="15.521" fill="#CE1E20"/>
<rect x="1142.43" y="15.521" width="15.521" height="15.521" fill="#CE1E20"/>
<rect x="1173.88" y="15.521" width="15.521" height="15.521" fill="#CE1E20"/>
<rect x="1205.33" y="15.521" width="15.521" height="15.521" fill="#CE1E20"/>
<rect x="1236.78" y="15.521" width="15.521" height="15.521" fill="#CE1E20"/>
<rect x="1268.23" y="15.521" width="15.521" height="15.521" fill="#CE1E20"/>
<rect x="1299.68" y="15.521" width="15.521" height="15.521" fill="#CE1E20"/>
<rect x="1331.13" y="15.521" width="15.521" height="15.521" fill="#CE1E20"/>
<rect x="1362.58" y="15.521" width="15.521" height="15.521" fill="#CE1E20"/>
<rect x="1394.03" y="15.521" width="15.521" height="15.521" fill="#CE1E20"/>
<rect x="1425.48" y="15.521" width="15.521" height="15.521" fill="#CE1E20"/>
<rect x="15.521" y="46.9712" width="15.9294" height="15.521" fill="#CE1E20"/>
<rect x="515.868" y="46.9712" width="15.9294" height="15.521" fill="#CE1E20"/>
<rect x="265.49" y="46.9712" width="15.521" height="15.521" fill="#CE1E20"/>
<rect x="765.838" y="46.9712" width="15.521" height="15.521" fill="#CE1E20"/>
<rect x="140.914" y="46.9712" width="15.9294" height="15.521" fill="#CE1E20"/>
<rect x="641.262" y="46.9712" width="15.9294" height="15.521" fill="#CE1E20"/>
<rect x="390.475" y="46.9712" width="15.9294" height="15.521" fill="#CE1E20"/>
<rect x="890.823" y="46.9712" width="15.9294" height="15.521" fill="#CE1E20"/>
<rect x="78.4219" y="46.9712" width="15.521" height="15.521" fill="#CE1E20"/>
<rect x="578.769" y="46.9712" width="15.521" height="15.521" fill="#CE1E20"/>
<rect x="327.983" y="46.9712" width="15.521" height="15.521" fill="#CE1E20"/>
<rect x="828.33" y="46.9712" width="15.521" height="15.521" fill="#CE1E20"/>
<rect x="203.406" y="46.9712" width="15.9294" height="15.521" fill="#CE1E20"/>
<rect x="703.754" y="46.9712" width="15.9294" height="15.521" fill="#CE1E20"/>
<rect x="453.376" y="46.9712" width="15.521" height="15.521" fill="#CE1E20"/>
<rect x="953.724" y="46.9712" width="15.521" height="15.521" fill="#CE1E20"/>
<rect x="46.9714" y="46.9712" width="15.9294" height="15.521" fill="#CE1E20"/>
<rect x="547.319" y="46.9712" width="15.9294" height="15.521" fill="#CE1E20"/>
<rect x="296.941" y="46.9712" width="15.521" height="15.521" fill="#CE1E20"/>
<rect x="797.288" y="46.9712" width="15.521" height="15.521" fill="#CE1E20"/>
<rect x="172.365" y="46.9712" width="15.521" height="15.521" fill="#CE1E20"/>
<rect x="672.712" y="46.9712" width="15.521" height="15.521" fill="#CE1E20"/>
<rect x="421.926" y="46.9712" width="15.9294" height="15.521" fill="#CE1E20"/>
<rect x="922.273" y="46.9712" width="15.9294" height="15.521" fill="#CE1E20"/>
<rect x="109.872" y="46.9712" width="15.521" height="15.521" fill="#CE1E20"/>
<rect x="610.22" y="46.9712" width="15.521" height="15.521" fill="#CE1E20"/>
<rect x="359.433" y="46.9712" width="15.521" height="15.521" fill="#CE1E20"/>
<rect x="859.781" y="46.9712" width="15.521" height="15.521" fill="#CE1E20"/>
<rect x="234.857" y="46.9712" width="15.521" height="15.521" fill="#CE1E20"/>
<rect x="735.205" y="46.9712" width="15.521" height="15.521" fill="#CE1E20"/>
<rect x="484.826" y="46.9712" width="15.521" height="15.521" fill="#CE1E20"/>
<rect x="985.174" y="46.9712" width="15.521" height="15.521" fill="#CE1E20"/>
<rect x="1016.62" y="46.9712" width="15.521" height="15.521" fill="#CE1E20"/>
<rect x="1048.07" y="46.9712" width="15.521" height="15.521" fill="#CE1E20"/>
<rect x="1079.53" y="46.9712" width="15.521" height="15.521" fill="#CE1E20"/>
<rect x="1110.98" y="46.9712" width="15.521" height="15.521" fill="#CE1E20"/>
<rect x="1142.43" y="46.9712" width="15.521" height="15.521" fill="#CE1E20"/>
<rect x="1173.88" y="46.9712" width="15.521" height="15.521" fill="#CE1E20"/>
<rect x="1205.33" y="46.9712" width="15.521" height="15.521" fill="#CE1E20"/>
<rect x="1236.78" y="46.9712" width="15.521" height="15.521" fill="#CE1E20"/>
<rect x="1268.23" y="46.9712" width="15.521" height="15.521" fill="#CE1E20"/>
<rect x="1299.68" y="46.9712" width="15.521" height="15.521" fill="#CE1E20"/>
<rect x="1331.13" y="46.9712" width="15.521" height="15.521" fill="#CE1E20"/>
<rect x="1362.58" y="46.9712" width="15.521" height="15.521" fill="#CE1E20"/>
<rect x="1394.03" y="46.9712" width="15.521" height="15.521" fill="#CE1E20"/>
<rect x="1425.48" y="46.9712" width="15.521" height="15.521" fill="#CE1E20"/>
<rect x="1441" width="15.521" height="15.521" fill="#CE1E20"/>
<rect x="1690.97" width="15.521" height="15.521" fill="#CE1E20"/>
<rect x="1566.39" width="15.521" height="15.521" fill="#CE1E20"/>
<rect x="1503.9" width="15.521" height="15.521" fill="#CE1E20"/>
<rect x="1753.46" width="15.521" height="15.521" fill="#CE1E20"/>
<rect x="1628.89" width="15.521" height="15.521" fill="#CE1E20"/>
<rect x="1472.45" width="15.521" height="15.521" fill="#CE1E20"/>
<rect x="1722.01" width="15.9294" height="15.521" fill="#CE1E20"/>
<rect x="1597.84" width="15.521" height="15.521" fill="#CE1E20"/>
<rect x="1534.94" width="15.9294" height="15.521" fill="#CE1E20"/>
<rect x="1784.5" width="15.9294" height="15.521" fill="#CE1E20"/>
<rect x="1660.34" width="15.521" height="15.521" fill="#CE1E20"/>
<rect x="1441" y="31.0417" width="15.521" height="15.9294" fill="#CE1E20"/>
<rect x="1690.97" y="31.0417" width="15.521" height="15.9294" fill="#CE1E20"/>
<rect x="1566.39" y="31.0417" width="15.521" height="15.9294" fill="#CE1E20"/>
<rect x="1503.9" y="31.0417" width="15.521" height="15.9294" fill="#CE1E20"/>
<rect x="1753.46" y="31.0417" width="15.521" height="15.9294" fill="#CE1E20"/>
<rect x="1628.89" y="31.0417" width="15.521" height="15.9294" fill="#CE1E20"/>
<rect x="1472.45" y="31.0417" width="15.521" height="15.9294" fill="#CE1E20"/>
<rect x="1722.01" y="31.0417" width="15.9294" height="15.9294" fill="#CE1E20"/>
<rect x="1597.84" y="31.0417" width="15.521" height="15.9294" fill="#CE1E20"/>
<rect x="1534.94" y="31.0417" width="15.9294" height="15.9294" fill="#CE1E20"/>
<rect x="1784.5" y="31.0417" width="15.9294" height="15.9294" fill="#CE1E20"/>
<rect x="1660.34" y="31.0417" width="15.521" height="15.9294" fill="#CE1E20"/>
<rect x="1456.52" y="15.521" width="15.9294" height="15.521" fill="#CE1E20"/>
<rect x="1706.49" y="15.521" width="15.521" height="15.521" fill="#CE1E20"/>
<rect x="1581.91" y="15.521" width="15.9294" height="15.521" fill="#CE1E20"/>
<rect x="1519.42" y="15.521" width="15.521" height="15.521" fill="#CE1E20"/>
<rect x="1768.98" y="15.521" width="15.521" height="15.521" fill="#CE1E20"/>
<rect x="1644.41" y="15.521" width="15.9294" height="15.521" fill="#CE1E20"/>
<rect x="1487.97" y="15.521" width="15.9294" height="15.521" fill="#CE1E20"/>
<rect x="1737.94" y="15.521" width="15.521" height="15.521" fill="#CE1E20"/>
<rect x="1613.36" y="15.521" width="15.521" height="15.521" fill="#CE1E20"/>
<rect x="1550.87" y="15.521" width="15.521" height="15.521" fill="#CE1E20"/>
<rect x="1675.86" y="15.521" width="15.521" height="15.521" fill="#CE1E20"/>
<rect x="1456.52" y="46.9712" width="15.9294" height="15.521" fill="#CE1E20"/>
<rect x="1706.49" y="46.9712" width="15.521" height="15.521" fill="#CE1E20"/>
<rect x="1581.91" y="46.9712" width="15.9294" height="15.521" fill="#CE1E20"/>
<rect x="1519.42" y="46.9712" width="15.521" height="15.521" fill="#CE1E20"/>
<rect x="1768.98" y="46.9712" width="15.521" height="15.521" fill="#CE1E20"/>
<rect x="1644.41" y="46.9712" width="15.9294" height="15.521" fill="#CE1E20"/>
<rect x="1487.97" y="46.9712" width="15.9294" height="15.521" fill="#CE1E20"/>
<rect x="1737.94" y="46.9712" width="15.521" height="15.521" fill="#CE1E20"/>
<rect x="1613.36" y="46.9712" width="15.521" height="15.521" fill="#CE1E20"/>
<rect x="1550.87" y="46.9712" width="15.521" height="15.521" fill="#CE1E20"/>
<rect x="1675.86" y="46.9712" width="15.521" height="15.521" fill="#CE1E20"/>
</svg>
