<svg viewBox="0 0 398 230" fill="none" xmlns="http://www.w3.org/2000/svg">
<path d="M154.242 78.9144C157.409 75.5701 161.359 73.0738 165.733 71.6528C171.35 69.7062 177.266 68.7684 183.208 68.8824C188.695 68.7588 194.163 69.5675 199.38 71.2743C203.213 72.4572 206.675 74.615 209.43 77.5378C211.578 79.8093 212.801 82.8045 212.86 85.935C212.918 87.2412 212.672 88.5431 212.143 89.7376C211.613 90.9322 210.813 91.9868 209.807 92.818C207.661 94.5256 204.982 95.4156 202.244 95.3303C199.763 95.4208 197.332 94.6217 195.385 93.0761C194.54 92.4279 193.857 91.5914 193.389 90.6328C192.922 89.6741 192.683 88.6196 192.692 87.5525C192.665 86.0474 193.176 84.5823 194.133 83.4227C195.189 82.1828 196.575 81.2698 198.129 80.79C194.639 77.9139 190.226 76.4094 185.712 76.5569C182.01 76.3885 178.358 77.4666 175.336 79.6199C174.09 80.5039 173.075 81.678 172.379 83.0415C171.683 84.405 171.327 85.9174 171.341 87.4493C171.36 90.8366 172.407 94.1378 174.342 96.9134C176.547 100.039 179.576 102.488 183.088 103.986V109.75C176.423 109.75 171.849 111.861 169.368 116.083C166.714 120.819 165.392 126.189 165.544 131.621C165.385 136.281 167.046 140.82 170.174 144.268C171.857 145.984 173.886 147.319 176.125 148.183C178.364 149.046 180.762 149.419 183.157 149.276C187.376 149.414 191.53 148.209 195.024 145.834C196.578 144.739 197.833 143.271 198.675 141.563C199.517 139.856 199.919 137.964 199.843 136.06C199.923 134.166 199.543 132.281 198.736 130.567C197.93 128.853 196.721 127.36 195.213 126.218C191.727 123.704 187.497 122.443 183.208 122.639V121.641C183.226 120.13 183.481 118.632 183.963 117.201C184.341 115.87 185.022 114.644 185.952 113.622C190.322 113.768 194.682 113.109 198.815 111.677C202.44 110.208 205.891 108.338 209.104 106.102C211.515 104.389 214.089 102.92 216.787 101.714C219.313 100.74 222.005 100.272 224.711 100.338C227.712 100.338 229.598 101.078 230.387 102.54C231.202 104.105 231.609 105.851 231.571 107.616C231.646 108.937 231.435 110.257 230.953 111.488C226.631 111.167 222.55 111.001 218.708 110.989C216.612 110.949 214.523 111.269 212.534 111.936C210.517 112.705 208.7 113.923 207.218 115.497C210.057 116.169 212.653 117.623 214.712 119.696C218.936 123.894 221.36 129.58 221.469 135.544C221.511 139.755 220.079 143.848 217.422 147.108C214.098 150.934 209.8 153.783 204.988 155.35C198.459 157.596 191.583 158.656 184.683 158.482C177.108 158.65 169.563 157.485 162.388 155.04C156.741 153.186 151.639 149.958 147.537 145.645C144.215 142.169 142.338 137.554 142.289 132.739C142.207 127.323 143.921 122.033 147.159 117.7C150.395 113.364 156.558 110.358 165.647 108.683C159.816 106.515 155.769 103.745 153.522 100.407C151.232 97.0051 150.035 92.9818 150.092 88.8775C150.151 85.1454 151.637 81.5787 154.242 78.9144Z" fill="#CE1E20"/>
<path d="M20.1338 109.251C20.6784 108.191 20.9161 106.998 20.8198 105.809C21.7221 105.816 22.6204 105.931 23.4952 106.154C24.2794 106.328 25.0278 106.636 25.7075 107.066V117.683C25.0278 118.112 24.2794 118.421 23.4952 118.595C22.6204 118.817 21.7221 118.932 20.8198 118.939C20.9058 117.787 20.6806 116.634 20.1681 115.601C19.9118 115.253 19.5701 114.979 19.1762 114.804C18.7824 114.629 18.35 114.559 17.9215 114.602H13.2053V124.738C13.1252 125.663 13.3945 126.584 13.9599 127.319C14.8131 127.982 15.8877 128.29 16.9611 128.179H21.5058C21.6244 129.556 21.2605 130.931 20.4768 132.068H1.30338C0.868832 131.567 0.541904 130.981 0.342995 130.347C0.116851 129.706 0.00087046 129.031 0 128.351C1.06189 128.455 2.13064 128.24 3.06981 127.732C3.36433 127.445 3.58994 127.094 3.72958 126.706C3.86922 126.319 3.91924 125.905 3.87584 125.495V98.6684C3.91264 98.2591 3.85083 97.8469 3.69563 97.4665C3.54043 97.0862 3.29638 96.7489 2.98406 96.483C2.15788 95.9713 1.19095 95.7362 0.222947 95.8119C0.198912 94.4895 0.670129 93.2062 1.54348 92.2156H23.2722C24.632 91.6013 26.1029 91.2734 27.594 91.252C28.1919 92.6041 28.6183 94.0262 28.863 95.485C29.2088 96.9355 29.4098 98.4169 29.4633 99.9073C28.8128 100.446 28.0841 100.881 27.3024 101.198C26.4458 101.589 25.5485 101.883 24.627 102.075C24.2234 100.701 23.4453 99.4677 22.3804 98.5135C21.2159 97.5371 19.7291 97.0337 18.213 97.1025H13.2053V110.352H17.87C18.3109 110.387 18.7531 110.304 19.151 110.11C19.5489 109.916 19.8882 109.62 20.1338 109.251Z" fill="#CE1E20"/>
<path d="M35.8429 128.782C33.1653 125.644 31.8173 121.58 32.0871 117.459C31.985 114.38 32.571 111.316 33.8021 108.494C34.876 106.158 36.6351 104.207 38.8441 102.901C41.1346 101.609 43.7283 100.955 46.3557 101.009C48.8613 100.927 51.3428 101.521 53.5415 102.729C55.6508 103.957 57.3377 105.799 58.3777 108.012C59.6016 110.655 60.1891 113.549 60.0927 116.461C60.1784 119.509 59.5622 122.536 58.292 125.306C57.211 127.615 55.4515 129.536 53.2499 130.812C50.9587 132.084 48.3732 132.725 45.7555 132.67C43.9243 132.752 42.0963 132.448 40.3891 131.778C38.6819 131.109 37.1334 130.088 35.8429 128.782ZM49.2712 126.355C50.0774 123.599 50.4023 120.723 50.2316 117.855C50.2874 115.184 50.1153 112.512 49.7171 109.871C49.5794 108.495 49.089 107.179 48.2937 106.05C48.0066 105.714 47.648 105.447 47.2444 105.268C46.8407 105.09 46.4023 105.004 45.9613 105.018C45.2873 105.036 44.6361 105.267 44.1004 105.678C43.5647 106.089 43.1717 106.659 42.9772 107.307C42.134 110.091 41.7971 113.006 41.9825 115.91C41.9275 118.559 42.0996 121.207 42.497 123.826C42.6478 125.19 43.1437 126.493 43.9376 127.611C44.2345 127.945 44.5997 128.209 45.0083 128.388C45.4168 128.566 45.8589 128.653 46.3043 128.644C46.9775 128.63 47.6285 128.4 48.1624 127.989C48.6962 127.577 49.0847 127.004 49.2712 126.355Z" fill="#CE1E20"/>
<path d="M66.8842 128.781C64.2066 125.644 62.8586 121.58 63.1284 117.459C63.0151 114.378 63.6015 111.313 64.8434 108.493C65.9062 106.156 67.6606 104.203 69.8683 102.901C72.1587 101.608 74.7524 100.955 77.3798 101.008C79.8906 100.929 82.3769 101.523 84.5827 102.729C86.6826 103.968 88.3665 105.807 89.419 108.012C90.635 110.657 91.2221 113.549 91.1339 116.46C91.2196 119.508 90.6034 122.535 89.3332 125.305C88.2587 127.613 86.5049 129.535 84.3083 130.812C82.0118 132.085 79.4202 132.726 76.7967 132.67C74.9655 132.751 73.1375 132.448 71.4304 131.778C69.7232 131.108 68.1746 130.087 66.8842 128.781ZM80.3124 126.355C81.1244 123.599 81.4551 120.723 81.29 117.854C81.3458 115.183 81.1737 112.512 80.7755 109.87C80.6378 108.495 80.1474 107.179 79.3521 106.05C79.065 105.714 78.7064 105.447 78.3028 105.268C77.8991 105.089 77.4607 105.004 77.0197 105.018C76.3457 105.036 75.6945 105.267 75.1588 105.678C74.6231 106.089 74.2301 106.658 74.0356 107.306C73.2011 110.093 72.8643 113.006 73.041 115.91C72.9859 118.558 73.158 121.207 73.5554 123.825C73.7029 125.193 74.2055 126.499 75.0132 127.611C75.306 127.945 75.668 128.21 76.0739 128.388C76.4798 128.567 76.9197 128.654 77.3627 128.643C78.0359 128.629 78.687 128.4 79.2208 127.988C79.7546 127.576 80.1431 127.004 80.3296 126.355H80.3124Z" fill="#CE1E20"/>
<path d="M124.353 130.588C123.723 131.331 122.897 131.88 121.969 132.171C120.87 132.572 119.708 132.77 118.539 132.756C117.42 132.751 116.314 132.505 115.298 132.033C114.389 131.645 113.643 130.952 113.188 130.072C112.467 131.027 111.484 131.751 110.359 132.154C109.007 132.589 107.593 132.793 106.174 132.756C104.103 132.742 102.077 132.145 100.326 131.035C98.4598 129.862 96.9664 128.179 96.0215 126.183C94.8593 123.746 94.2781 121.072 94.3237 118.371C94.2244 115.103 94.9375 111.863 96.3988 108.941C97.6331 106.513 99.5384 104.494 101.887 103.125C104.178 101.829 106.768 101.158 109.398 101.18C110.033 101.18 111.199 101.18 112.828 101.421L112.657 97.9799V95.1406C112.691 94.7511 112.638 94.3588 112.502 93.9925C112.365 93.6262 112.149 93.2953 111.868 93.0241C110.966 92.4655 109.904 92.2234 108.85 92.3358V89.9956C110.484 89.1497 112.21 88.4972 113.994 88.0512C115.623 87.5651 117.305 87.2819 119.002 87.208C119.689 87.1426 120.373 87.353 120.906 87.793C121.358 88.3677 121.573 89.0945 121.506 89.8235V125.667C121.43 126.47 121.674 127.27 122.185 127.893C122.696 128.516 123.433 128.909 124.233 128.988L124.353 130.588ZM112.691 126.871V106.893C112.351 106.36 111.881 105.923 111.326 105.622C110.771 105.321 110.149 105.166 109.518 105.173C108.672 105.187 107.847 105.44 107.138 105.902C106.428 106.365 105.862 107.018 105.505 107.788C104.3 110.486 103.781 113.443 103.996 116.392C103.827 119.36 104.418 122.321 105.711 124.996C106.087 125.845 106.693 126.571 107.46 127.091C108.227 127.612 109.125 127.905 110.05 127.938C110.541 127.96 111.03 127.877 111.486 127.693C111.942 127.509 112.353 127.228 112.691 126.871Z" fill="#CE1E20"/>
<path d="M262.397 132.98C258.332 132.67 254.782 132.515 251.695 132.515C250.878 131.478 250.442 130.19 250.461 128.867C251.405 128.943 252.348 128.714 253.153 128.214C253.454 127.927 253.685 127.574 253.828 127.183C253.971 126.792 254.022 126.373 253.976 125.959V99.133C254.016 98.7271 253.963 98.3175 253.82 97.9357C253.677 97.5539 253.449 97.21 253.153 96.9304C252.348 96.43 251.405 96.2009 250.461 96.2765C250.413 94.9655 250.853 93.6835 251.695 92.6802C254.594 92.6802 257.183 92.6802 259.499 92.4565L263.597 92.1639C264.884 92.0607 265.81 91.9919 266.376 91.9919C270.089 91.8637 273.765 92.7753 276.991 94.6246C279.783 96.2941 282.007 98.7713 283.371 101.731C284.784 104.877 285.493 108.296 285.446 111.746C285.507 115.499 284.776 119.223 283.302 122.673C281.933 125.832 279.643 128.501 276.734 130.33C273.363 132.32 269.495 133.299 265.587 133.152C264.712 133.152 263.649 133.101 262.397 132.98ZM272.687 124.669C274.402 122.174 275.328 118.164 275.328 112.624C275.328 107.083 274.385 103.246 272.515 100.578C271.65 99.2866 270.469 98.2395 269.084 97.5374C267.7 96.8354 266.159 96.5019 264.609 96.569C264.149 96.5529 263.689 96.5875 263.237 96.6723V128.3C263.839 128.39 264.447 128.431 265.055 128.42C266.532 128.507 268.006 128.214 269.338 127.57C270.671 126.925 271.817 125.951 272.67 124.738L272.687 124.669Z" fill="#CE1E20"/>
<path d="M311.668 102.832C312.502 103.837 312.925 105.122 312.851 106.428C312.922 107.874 312.472 109.297 311.582 110.437C310.765 111.332 309.636 111.877 308.43 111.96C307.224 112.043 306.031 111.658 305.1 110.885C304.736 110.564 304.444 110.17 304.243 109.728C304.042 109.286 303.937 108.807 303.933 108.321C303.915 107.839 303.973 107.357 304.105 106.893C302.842 107.185 301.666 107.775 300.675 108.613V125.821C300.634 126.566 300.775 127.311 301.087 127.989C301.261 128.269 301.488 128.512 301.756 128.704C302.024 128.896 302.327 129.033 302.647 129.108C303.769 129.385 304.923 129.506 306.077 129.469C306.087 130.052 306.006 130.632 305.837 131.19C305.676 131.702 305.386 132.164 304.997 132.532H289.819C289.402 132.137 289.07 131.659 288.846 131.129C288.621 130.599 288.509 130.028 288.516 129.452C289.361 129.532 290.204 129.279 290.865 128.746C291.404 128.059 291.662 127.191 291.586 126.32V109.801C291.629 109.4 291.578 108.994 291.434 108.617C291.291 108.24 291.061 107.903 290.763 107.633C289.868 107.139 288.847 106.923 287.83 107.013V104.432C289.4 103.586 291.071 102.944 292.803 102.522C294.365 102.054 295.977 101.777 297.605 101.696C297.988 101.66 298.372 101.733 298.715 101.906C299.058 102.08 299.345 102.347 299.543 102.677C300.026 103.907 300.219 105.231 300.109 106.549C300.899 105.157 302.01 103.977 303.35 103.107C304.674 102.128 306.268 101.587 307.912 101.558C308.592 101.499 309.277 101.581 309.923 101.8C310.569 102.019 311.164 102.371 311.668 102.832Z" fill="#CE1E20"/>
<path d="M326.057 126.355C326.015 126.787 326.067 127.223 326.209 127.632C326.352 128.042 326.58 128.417 326.88 128.729C327.617 129.256 328.516 129.506 329.418 129.435C329.422 130.012 329.306 130.584 329.079 131.114C328.852 131.644 328.518 132.121 328.098 132.515H315.252C314.832 132.121 314.498 131.644 314.271 131.114C314.044 130.584 313.928 130.012 313.932 129.435C314.819 129.512 315.703 129.261 316.419 128.729C316.706 128.4 316.923 128.014 317.055 127.597C317.188 127.179 317.234 126.739 317.19 126.303V109.75C317.23 109.335 317.182 108.917 317.049 108.522C316.916 108.128 316.701 107.766 316.419 107.461C315.527 106.906 314.478 106.664 313.435 106.773V104.26C314.899 103.493 316.455 102.914 318.065 102.54C319.859 101.969 321.723 101.651 323.604 101.593C323.943 101.562 324.284 101.599 324.608 101.702C324.933 101.806 325.233 101.973 325.491 102.196C325.927 102.777 326.13 103.502 326.057 104.226V126.355ZM325.628 96.0696C325.091 96.5709 324.459 96.9587 323.77 97.21C323.08 97.4613 322.347 97.5709 321.615 97.5323C320.9 97.5736 320.185 97.4649 319.515 97.213C318.844 96.9612 318.234 96.5718 317.722 96.0696C317.231 95.5505 316.849 94.9365 316.602 94.2651C316.354 93.5936 316.245 92.8786 316.281 92.1635C316.249 91.4497 316.366 90.737 316.622 90.0706C316.879 89.4042 317.271 88.7985 317.773 88.2919C318.299 87.7876 318.921 87.395 319.602 87.1378C320.283 86.8805 321.008 86.7639 321.735 86.7948C322.457 86.7626 323.177 86.8787 323.853 87.1362C324.528 87.3936 325.144 87.7869 325.662 88.2919C326.161 88.7999 326.55 89.4063 326.804 90.0727C327.058 90.739 327.171 91.451 327.137 92.1635C327.172 92.8843 327.055 93.6043 326.795 94.2771C326.535 94.9499 326.138 95.5606 325.628 96.0696Z" fill="#CE1E20"/>
<path d="M364.078 130.984C363.197 131.699 362.144 132.168 361.025 132.343C359.655 132.677 358.251 132.851 356.841 132.86C355.573 132.964 354.306 132.643 353.239 131.948C352.829 131.59 352.51 131.14 352.307 130.635C352.104 130.129 352.024 129.582 352.073 129.04V111.23C352.18 110.076 351.828 108.926 351.095 108.029C350.758 107.702 350.357 107.447 349.917 107.281C349.478 107.116 349.009 107.042 348.54 107.066C347.786 107.057 347.04 107.221 346.36 107.546C345.679 107.871 345.081 108.349 344.613 108.941V126.355C344.533 127.216 344.792 128.074 345.333 128.747C345.664 129.031 346.049 129.245 346.464 129.375C346.88 129.506 347.318 129.549 347.751 129.504C347.749 130.07 347.631 130.63 347.404 131.148C347.177 131.666 346.846 132.132 346.431 132.516H333.517C333.098 132.133 332.762 131.668 332.529 131.15C332.296 130.633 332.171 130.072 332.162 129.504C332.598 129.546 333.037 129.5 333.455 129.37C333.873 129.24 334.261 129.029 334.597 128.747C334.872 128.418 335.079 128.036 335.206 127.626C335.333 127.215 335.376 126.783 335.335 126.355V109.698C335.378 109.291 335.324 108.879 335.178 108.496C335.032 108.113 334.798 107.77 334.494 107.496C333.588 106.965 332.537 106.736 331.493 106.842V104.261C334.697 102.741 338.148 101.814 341.68 101.525C342.058 101.503 342.435 101.565 342.785 101.708C343.135 101.851 343.449 102.071 343.704 102.351C344.279 103.285 344.565 104.368 344.527 105.465C345.517 104.233 346.779 103.249 348.214 102.592C349.783 101.866 351.494 101.502 353.222 101.525C354.322 101.436 355.429 101.576 356.473 101.934C357.517 102.292 358.477 102.861 359.293 103.607C360.787 105.572 361.485 108.03 361.248 110.49V125.977C361.172 126.78 361.416 127.58 361.927 128.203C362.438 128.826 363.175 129.219 363.975 129.298L364.078 130.984Z" fill="#CE1E20"/>
<path d="M397.966 130.588C397.887 131.004 397.702 131.393 397.428 131.716C397.155 132.039 396.802 132.285 396.405 132.429C395.28 132.915 394.062 133.144 392.838 133.1C391.15 133.159 389.481 132.722 388.036 131.844C386.833 131.065 385.814 130.032 385.052 128.816C384.177 127.324 383.398 125.778 382.72 124.187C382.083 122.712 381.35 121.28 380.524 119.902C379.967 118.97 379.116 118.249 378.106 117.855V126.579C378.065 127.003 378.107 127.431 378.23 127.838C378.354 128.246 378.557 128.625 378.827 128.953C379.525 129.507 380.411 129.766 381.296 129.676C381.302 130.248 381.183 130.815 380.946 131.336C380.708 131.856 380.36 132.318 379.924 132.687H367.508C367.07 132.32 366.719 131.859 366.481 131.338C366.244 130.817 366.126 130.249 366.136 129.676C367.004 129.752 367.869 129.494 368.554 128.953C368.821 128.623 369.02 128.244 369.141 127.836C369.262 127.429 369.301 127.002 369.257 126.579V95.6053C369.287 95.2136 369.232 94.82 369.096 94.4517C368.96 94.0833 368.746 93.749 368.468 93.4716C367.572 92.8969 366.507 92.6478 365.45 92.7661V90.5119C367.09 89.6801 368.815 89.0282 370.595 88.5675C372.211 88.077 373.881 87.7881 375.568 87.7071C375.92 87.6757 376.274 87.716 376.61 87.8254C376.946 87.9348 377.257 88.1111 377.523 88.3438C377.983 88.9212 378.198 89.6564 378.123 90.3915V115.79L384.366 109.251C385.086 108.528 385.446 107.955 385.446 107.53C385.446 106.997 385.035 106.498 384.229 106.05C383.513 105.619 382.697 105.382 381.862 105.362C381.865 104.716 381.981 104.075 382.205 103.469C382.422 102.876 382.755 102.332 383.183 101.869H395.976C396.769 102.831 397.156 104.066 397.057 105.31C396.324 105.303 395.6 105.474 394.947 105.809C394.374 106.116 393.843 106.498 393.37 106.945L384.795 115.549C386.072 115.721 387.29 116.199 388.345 116.943C389.454 117.815 390.361 118.919 391.003 120.178L392.478 122.845C393.298 124.467 394.239 126.026 395.29 127.508C396.007 128.335 396.949 128.933 398 129.229L397.966 130.588Z" fill="#CE1E20"/>
<path d="M76.1421 59.7791C76.0818 59.8533 76.0061 59.9134 75.9201 59.955C75.8342 59.9966 75.7402 60.0188 75.6448 60.02C75.4478 60.0217 75.2576 59.9479 75.1131 59.8135L73.1066 57.9379C73.033 57.8733 72.9736 57.794 72.9323 57.7052C72.891 57.6163 72.8685 57.5197 72.8665 57.4216C72.8596 57.3256 72.8746 57.2292 72.9103 57.1398C72.9459 57.0504 73.0013 56.9702 73.0723 56.9054L79.2977 50.2117C79.3578 50.136 79.4332 50.0739 79.5189 50.0294C79.6046 49.985 79.6987 49.9591 79.795 49.9536C79.9914 49.9552 80.1804 50.0286 80.3266 50.1601L82.3332 52.0357C82.473 52.1729 82.5583 52.3563 82.5733 52.5519C82.5724 52.744 82.4988 52.9285 82.3675 53.0682L76.1421 59.7791Z" fill="#CE1E20"/>
<path d="M94.9039 50.5908C94.8265 50.6497 94.7379 50.6923 94.6436 50.716C94.5493 50.7396 94.4511 50.7439 94.3551 50.7285C94.261 50.7112 94.1714 50.6748 94.0918 50.6215C94.0122 50.5683 93.9442 50.4993 93.8921 50.4187L82.9677 34.932C82.9119 34.853 82.8726 34.7635 82.852 34.6689C82.8313 34.5743 82.8299 34.4765 82.8476 34.3814C82.8605 34.2832 82.8948 34.1891 82.9482 34.1058C83.0016 34.0225 83.0726 33.952 83.1563 33.8996L90.4279 28.7373C91.5439 27.8845 92.8221 27.2696 94.1836 26.9305C95.2133 26.6785 96.2967 26.7691 97.2706 27.1886C98.2469 27.6474 99.0778 28.3679 99.6716 29.2707C100.051 29.7791 100.309 30.3677 100.426 30.9915C100.529 31.5604 100.529 32.1433 100.426 32.7122C100.336 33.1442 100.186 33.5613 99.9803 33.9512C100.858 33.8156 101.756 33.9104 102.587 34.2265C103.52 34.5416 104.33 35.1437 104.902 35.9472C105.594 36.8862 106.01 38.0009 106.103 39.165C106.16 40.2912 105.873 41.4081 105.28 42.3656C104.531 43.5346 103.55 44.5362 102.398 45.3081L94.9039 50.5908ZM91.474 37.9089L94.5952 35.7063C94.8765 35.5381 95.1204 35.3139 95.3121 35.0476C95.5038 34.7813 95.6392 34.4784 95.71 34.1577C95.7513 33.8703 95.7346 33.5775 95.6609 33.2967C95.5873 33.0158 95.4582 32.7527 95.2812 32.523C95.1308 32.2849 94.9327 32.0809 94.6995 31.9239C94.4662 31.7669 94.2029 31.6603 93.9264 31.611C93.6022 31.5778 93.2746 31.6095 92.9626 31.704C92.6506 31.7985 92.3603 31.954 92.1085 32.1616L88.9873 34.3642L91.474 37.9089ZM96.3788 44.8951L99.7059 42.5377C100.01 42.3537 100.27 42.1037 100.466 41.806C100.662 41.5082 100.789 41.1703 100.838 40.817C100.911 40.2099 100.759 39.5971 100.409 39.0962C100.229 38.8224 99.9932 38.5896 99.7175 38.413C99.4418 38.2365 99.1321 38.1201 98.8087 38.0714C98.4852 38.0227 98.1552 38.0428 97.84 38.1305C97.5247 38.2181 97.2314 38.3712 96.9791 38.58L93.6177 40.9374L96.3788 44.8951Z" fill="#CE1E20"/>
<path d="M111.385 39.543C111.296 39.5845 111.2 39.606 111.102 39.606C111.004 39.606 110.907 39.5845 110.819 39.543C110.728 39.5124 110.644 39.4629 110.573 39.3976C110.502 39.3324 110.446 39.253 110.407 39.1644L101.832 22.2151C101.764 22.032 101.764 21.8303 101.832 21.6472C101.904 21.468 102.038 21.3212 102.21 21.2342L105.64 19.5135C105.816 19.4444 106.012 19.4444 106.188 19.5135C106.282 19.5439 106.368 19.5932 106.442 19.6583C106.516 19.7234 106.575 19.803 106.617 19.8921L113.477 33.5548L121.315 29.5627C121.406 29.5208 121.505 29.4992 121.606 29.4992C121.707 29.4992 121.806 29.5208 121.898 29.5627C121.993 29.5929 122.082 29.6419 122.159 29.7069C122.235 29.7719 122.298 29.8516 122.344 29.9412L123.664 32.5568C123.702 32.6465 123.722 32.7431 123.722 32.8407C123.722 32.9383 123.702 33.0349 123.664 33.1246C123.598 33.3111 123.463 33.4651 123.287 33.5548L111.385 39.543Z" fill="#CE1E20"/>
<path d="M124.659 32.7464C124.587 32.784 124.508 32.8037 124.427 32.8037C124.347 32.8037 124.267 32.784 124.196 32.7464C124.125 32.7159 124.061 32.6711 124.008 32.6149C123.955 32.5587 123.914 32.4922 123.887 32.4194C123.887 32.3162 123.887 32.2301 123.887 32.1613L124.127 12.1662C124.112 11.9322 124.166 11.699 124.282 11.4951C124.43 11.2571 124.663 11.0847 124.933 11.0133L128.998 9.56789C129.125 9.51248 129.262 9.48389 129.401 9.48389C129.539 9.48389 129.677 9.51248 129.804 9.56789C130.021 9.64423 130.207 9.78914 130.335 9.98087L142.992 25.4676C143.062 25.527 143.116 25.6042 143.146 25.6913C143.205 25.8406 143.205 26.0066 143.146 26.1559C143.069 26.3107 142.933 26.4283 142.769 26.4828L139.339 27.6874C139.118 27.7738 138.874 27.7738 138.653 27.6874C138.5 27.632 138.364 27.537 138.259 27.412L136.149 24.9342L128.809 27.5325V30.7159C128.795 30.8709 128.755 31.0223 128.689 31.1633C128.628 31.2744 128.545 31.3716 128.444 31.4487C128.344 31.5257 128.229 31.5809 128.106 31.6107L124.659 32.7464ZM128.535 23.1102L133.68 21.2862L128.535 14.9194V23.1102Z" fill="#CE1E20"/>
<path d="M152.784 24.469C151.206 24.8575 149.562 24.8986 147.965 24.5894C146.618 24.2946 145.384 23.6131 144.415 22.6278C143.385 21.4947 142.664 20.1135 142.323 18.6185C142.134 17.8441 141.946 17.001 141.757 16.1062C141.568 15.2114 141.38 14.3854 141.225 13.525C140.947 12.0317 141.053 10.4916 141.534 9.0511C142.022 7.74307 142.873 6.60258 143.987 5.76447C145.305 4.82732 146.808 4.18213 148.394 3.87165C149.565 3.61382 150.765 3.52115 151.961 3.59633C153.028 3.66593 154.074 3.92825 155.048 4.37067C155.945 4.76051 156.742 5.34876 157.381 6.09142C158.039 6.89083 158.487 7.84342 158.684 8.86182C158.721 8.93345 158.741 9.01318 158.741 9.09412C158.741 9.17506 158.721 9.25479 158.684 9.32642C158.64 9.3946 158.582 9.45277 158.514 9.49721C158.446 9.54165 158.369 9.57139 158.289 9.58453L154.431 10.4277C154.236 10.4909 154.026 10.4909 153.831 10.4277C153.635 10.2976 153.476 10.12 153.368 9.91148C153.024 9.14748 152.414 8.53561 151.653 8.19073C150.896 7.97132 150.094 7.97132 149.337 8.19073C148.873 8.22567 148.421 8.35506 148.008 8.57101C147.595 8.78697 147.231 9.08497 146.936 9.44687C146.414 10.3971 146.279 11.5133 146.559 12.5614C146.833 14.1445 147.176 15.7448 147.588 17.3623C147.788 18.4521 148.403 19.4209 149.303 20.0639C150.111 20.5205 151.067 20.638 151.961 20.3908C152.749 20.248 153.48 19.884 154.071 19.3412C154.641 18.6989 154.942 17.8605 154.911 17.001C154.903 16.7685 154.97 16.5396 155.1 16.3471C155.255 16.1956 155.452 16.0938 155.666 16.0545L159.507 15.2286C159.589 15.2084 159.674 15.2056 159.756 15.2205C159.839 15.2353 159.918 15.2674 159.987 15.3146C160.057 15.355 160.116 15.4125 160.158 15.4816C160.2 15.5508 160.224 15.6295 160.227 15.7104C160.469 16.6996 160.469 17.7325 160.227 18.7217C159.949 19.6737 159.47 20.5542 158.821 21.3028C158.058 22.0961 157.157 22.7433 156.163 23.2129C155.104 23.7957 153.966 24.219 152.784 24.469Z" fill="#CE1E20"/>
<path d="M164.824 21.9233C164.628 21.9456 164.431 21.89 164.275 21.7684C164.203 21.7025 164.144 21.623 164.103 21.5344C164.062 21.4458 164.039 21.3499 164.035 21.2522L162.234 2.32394C162.222 2.22917 162.23 2.13303 162.257 2.04134C162.283 1.94965 162.328 1.86431 162.388 1.7905C162.452 1.71432 162.53 1.65209 162.619 1.60768C162.707 1.56327 162.804 1.53764 162.903 1.53239L166.556 1.18824C166.752 1.1677 166.948 1.2231 167.105 1.34311C167.175 1.40635 167.233 1.48298 167.274 1.56861C167.315 1.65424 167.339 1.74719 167.345 1.84213L167.962 8.31214L172.695 1.15383C172.798 1.03176 172.92 0.927166 173.055 0.844093C173.266 0.691288 173.516 0.601772 173.776 0.585981L177.96 0.190209C178.121 0.175746 178.282 0.22534 178.407 0.32832C178.532 0.4313 178.612 0.579435 178.629 0.740848C178.673 0.857367 178.673 0.985687 178.629 1.10221L172.404 10.4631L180.807 19.4282C180.902 19.5182 180.957 19.6418 180.962 19.7723C180.968 19.9305 180.913 20.085 180.807 20.2025C180.705 20.3321 180.558 20.4181 180.396 20.4434L176.074 20.8392C175.79 20.8854 175.499 20.8306 175.251 20.6843L174.856 20.3746L168.442 13.7325L169.094 20.7703C169.114 20.8678 169.111 20.9688 169.084 21.0646C169.057 21.1605 169.007 21.2484 168.94 21.321C168.809 21.4627 168.633 21.554 168.442 21.5791L164.824 21.9233Z" fill="#CE1E20"/>
<path d="M196.996 21.0454C195.403 21.003 193.836 20.6218 192.4 19.9269C191.148 19.3171 190.117 18.3306 189.45 17.1049C188.734 15.7204 188.392 14.1722 188.456 12.6138C188.456 11.7878 188.456 10.893 188.576 10.1015C188.696 9.30992 188.576 8.38071 188.73 7.57196C188.839 6.01214 189.347 4.50688 190.205 3.20126C191.008 2.05108 192.138 1.16977 193.446 0.671766C196.475 -0.37274 199.79 -0.193777 202.69 1.17078C203.951 1.80418 204.992 2.80606 205.674 4.04443C206.418 5.41975 206.774 6.9725 206.703 8.53558C206.703 9.39596 206.703 10.2563 206.703 11.0823C206.703 11.9082 206.6 12.803 206.514 13.5774C206.42 15.1375 205.917 16.645 205.057 17.9481C204.256 19.0816 203.132 19.9454 201.833 20.4259C200.284 20.9819 198.634 21.1933 196.996 21.0454ZM197.236 16.8468C197.695 16.8909 198.157 16.8421 198.596 16.7031C199.035 16.5642 199.442 16.338 199.792 16.038C200.56 15.2594 200.991 14.2083 200.992 13.1128C200.992 12.2696 201.129 11.392 201.181 10.7037C201.232 10.0154 201.181 9.15505 201.181 8.32909C201.245 7.5401 201.134 6.74671 200.855 6.00608C200.621 5.44414 200.212 4.97329 199.689 4.6639C199.163 4.36443 198.577 4.18796 197.974 4.14768C197.356 4.10083 196.736 4.21337 196.173 4.47462C195.62 4.72968 195.158 5.15045 194.853 5.67914C194.476 6.35493 194.259 7.10846 194.218 7.8817C194.218 8.69045 194.098 9.48199 194.064 10.2391C194.029 10.9963 194.064 11.805 193.961 12.6654C193.857 13.7551 194.17 14.8438 194.835 15.7111C195.14 16.051 195.51 16.3264 195.922 16.5214C196.334 16.7164 196.781 16.827 197.236 16.8468Z" fill="#CE1E20"/>
<path d="M211.848 22.0608C211.705 22.0428 211.567 21.9953 211.443 21.9212C211.319 21.8472 211.212 21.7483 211.128 21.6306C210.972 21.423 210.893 21.1675 210.905 20.9079L211.179 1.97966C211.171 1.93994 211.171 1.89892 211.179 1.85921C211.197 1.78093 211.231 1.7071 211.278 1.64208C211.325 1.57707 211.385 1.52217 211.454 1.48064C211.581 1.38413 211.741 1.34096 211.899 1.36019L215.449 2.03128C215.981 2.13453 216.238 2.39264 216.221 2.82283L216.015 14.4207L219.308 8.15715C219.412 7.99105 219.539 7.84045 219.685 7.70975C219.781 7.62854 219.895 7.572 220.018 7.54502C220.14 7.51803 220.268 7.52142 220.389 7.55488L222.447 7.95066C222.579 7.95907 222.707 7.99945 222.821 8.06835C222.934 8.13726 223.029 8.23266 223.098 8.34643C223.183 8.51905 223.235 8.70564 223.253 8.89707L224.093 15.9005L228.037 5.02538C228.175 4.6124 228.5 4.45754 229.032 4.56078L232.599 5.21467C232.758 5.24788 232.897 5.34225 232.987 5.47743C233.077 5.61262 233.11 5.7778 233.079 5.93738V6.00621L226.563 23.7987C226.471 24.0411 226.31 24.2507 226.099 24.401C225.853 24.5521 225.558 24.6015 225.276 24.5387L222.549 24.0224C222.411 24.0094 222.277 23.9674 222.156 23.8992C222.035 23.8311 221.93 23.7382 221.846 23.6267C221.726 23.4618 221.638 23.2747 221.589 23.076L220.217 14.3174L215.81 22.0092C215.689 22.1735 215.545 22.3186 215.381 22.4394C215.267 22.5097 215.14 22.5566 215.007 22.5773C214.875 22.598 214.739 22.592 214.609 22.5598L211.848 22.0608Z" fill="#CE1E20"/>
<path d="M232.428 26.3279C232.333 26.3006 232.245 26.2545 232.169 26.1925C232.092 26.1304 232.029 26.0536 231.982 25.9665C231.944 25.8768 231.924 25.7802 231.924 25.6826C231.924 25.585 231.944 25.4884 231.982 25.3987L238.002 7.36525C238.062 7.18081 238.191 7.0268 238.362 6.93506C238.451 6.89672 238.548 6.87695 238.645 6.87695C238.742 6.87695 238.838 6.89672 238.928 6.93506L241.843 7.91589C241.97 7.94031 242.091 7.99121 242.197 8.0653C242.304 8.1394 242.393 8.23505 242.461 8.34607C242.526 8.4782 242.577 8.61656 242.615 8.75905L245.788 21.6991L249.2 11.1681C249.261 10.9837 249.39 10.8297 249.561 10.7379C249.65 10.6996 249.746 10.6798 249.844 10.6798C249.941 10.6798 250.037 10.6996 250.127 10.7379L253.436 11.8392C253.531 11.8665 253.619 11.9126 253.696 11.9746C253.772 12.0367 253.836 12.1135 253.882 12.2005C253.921 12.2903 253.94 12.3869 253.94 12.4845C253.94 12.5821 253.921 12.6786 253.882 12.7684L247.863 30.7846C247.835 30.875 247.789 30.9586 247.727 31.0297C247.665 31.1009 247.588 31.1581 247.503 31.1976C247.414 31.2403 247.318 31.2625 247.22 31.2625C247.122 31.2625 247.025 31.2403 246.937 31.1976L243.987 30.1996C243.864 30.1708 243.748 30.116 243.647 30.0389C243.547 29.9617 243.464 29.864 243.404 29.7522C243.342 29.6244 243.291 29.4921 243.249 29.3564L239.922 16.8294L236.492 26.9301C236.465 27.0228 236.419 27.1088 236.357 27.1828C236.295 27.2568 236.219 27.3172 236.132 27.3603C236.043 27.3987 235.947 27.4184 235.849 27.4184C235.752 27.4184 235.656 27.3987 235.566 27.3603L232.428 26.3279Z" fill="#CE1E20"/>
<path d="M251.499 33.1767C251.41 33.1382 251.331 33.0816 251.266 33.0104C251.201 32.9393 251.152 32.8552 251.121 32.7637C251.084 32.6737 251.065 32.5772 251.065 32.4798C251.065 32.3823 251.084 32.2858 251.121 32.1959L259.49 15.1432C259.526 15.0528 259.581 14.9717 259.652 14.9061C259.724 14.8405 259.809 14.7921 259.902 14.7647C259.991 14.7232 260.087 14.7017 260.185 14.7017C260.283 14.7017 260.379 14.7232 260.468 14.7647L272.679 20.7873C272.853 20.87 272.989 21.0183 273.056 21.2003C273.097 21.2892 273.119 21.3861 273.119 21.4842C273.119 21.5823 273.097 21.6792 273.056 21.7681L271.855 24.2288C271.774 24.4086 271.626 24.5502 271.444 24.6246C271.261 24.6932 271.06 24.6932 270.878 24.6246L262.526 20.4948L260.811 24.0395L268.58 27.8768C268.669 27.918 268.749 27.9776 268.814 28.0517C268.879 28.1258 268.928 28.2128 268.957 28.307C269.024 28.4962 269.024 28.7027 268.957 28.892L267.825 31.1634C267.744 31.3336 267.604 31.4682 267.431 31.542C267.341 31.5803 267.245 31.6001 267.148 31.6001C267.05 31.6001 266.954 31.5803 266.865 31.542L259.096 27.7047L257.381 31.3527L265.956 35.5685C266.131 35.6512 266.266 35.7995 266.333 35.9815C266.374 36.0704 266.396 36.1673 266.396 36.2654C266.396 36.3635 266.374 36.4604 266.333 36.5493L265.133 39.01C265.051 39.1898 264.904 39.3314 264.721 39.4058C264.539 39.4744 264.338 39.4744 264.155 39.4058L251.499 33.1767Z" fill="#CE1E20"/>
<path d="M267.448 41.3327C267.368 41.2804 267.299 41.2122 267.246 41.1323C267.193 41.0524 267.156 40.9625 267.139 40.8681C267.124 40.7717 267.128 40.6733 267.152 40.5787C267.175 40.484 267.218 40.3952 267.276 40.3174L278.063 24.6758C278.116 24.5953 278.184 24.5263 278.263 24.473C278.343 24.4198 278.432 24.3834 278.527 24.3661C278.622 24.3462 278.722 24.3482 278.817 24.3721C278.912 24.3959 279 24.4409 279.075 24.5038L285.301 28.8228C286.686 29.7418 287.856 30.9512 288.731 32.3676C289.463 33.5585 289.816 34.9451 289.742 36.3425C289.616 37.8721 289.096 39.3426 288.233 40.6099C287.753 41.3155 287.341 41.9521 286.964 42.4684C286.587 42.9846 286.175 43.604 285.678 44.2923C284.777 45.5771 283.568 46.6129 282.162 47.3037C280.928 47.889 279.536 48.0522 278.201 47.7683C276.588 47.407 275.068 46.7094 273.742 45.7206L267.448 41.3327ZM273.587 40.4207L276.126 42.1414C276.7 42.5726 277.361 42.8722 278.063 43.019C278.653 43.103 279.255 42.9944 279.778 42.7093C280.458 42.3198 281.043 41.7852 281.493 41.1434L282.402 39.9216C282.677 39.5603 282.934 39.1989 283.174 38.8204C283.414 38.4418 283.689 38.0288 283.963 37.547C284.613 36.7006 284.903 35.6303 284.769 34.5701C284.482 33.5537 283.811 32.6896 282.9 32.1611L280.482 30.4403L273.587 40.4207Z" fill="#CE1E20"/>
<path d="M292.641 52.4665C292.507 52.3216 292.433 52.1307 292.435 51.9331C292.436 51.8373 292.458 51.743 292.5 51.6568C292.541 51.5706 292.601 51.4945 292.675 51.4341L294.664 49.5412C294.731 49.4676 294.813 49.4106 294.906 49.3747C294.998 49.3389 295.097 49.3252 295.196 49.3348C295.291 49.3359 295.385 49.3581 295.471 49.3997C295.557 49.4414 295.633 49.5014 295.693 49.5757L301.97 56.2177C302.104 56.3627 302.178 56.5535 302.176 56.7512C302.175 56.8469 302.153 56.9412 302.111 57.0275C302.07 57.1137 302.01 57.1897 301.936 57.2502L299.946 59.143C299.882 59.2142 299.802 59.2698 299.713 59.3056C299.624 59.3413 299.528 59.3564 299.432 59.3495C299.334 59.3497 299.237 59.3282 299.148 59.2865C299.059 59.2449 298.98 59.1842 298.917 59.1086L292.641 52.4665Z" fill="#CE1E20"/>
<path d="M88.9018 195.116C88.7365 195.014 88.6144 194.855 88.5588 194.669C88.517 194.473 88.554 194.269 88.6617 194.101L90.0679 191.743C90.1654 191.574 90.3257 191.45 90.5138 191.399C90.6075 191.378 90.7045 191.376 90.7989 191.394C90.8933 191.412 90.983 191.449 91.0626 191.503L98.9001 196.2C99.0653 196.302 99.1874 196.461 99.243 196.648C99.2679 196.744 99.2716 196.845 99.2538 196.943C99.236 197.041 99.1972 197.134 99.1401 197.215L97.7339 199.573C97.6364 199.742 97.4761 199.866 97.288 199.917C97.1946 199.942 97.0969 199.945 97.002 199.927C96.9071 199.909 96.8173 199.871 96.7392 199.814L88.9018 195.116Z" fill="#CE1E20"/>
<path d="M105.091 211.67C104.998 211.639 104.912 211.587 104.841 211.519C104.77 211.45 104.715 211.367 104.679 211.275C104.641 211.185 104.622 211.088 104.622 210.991C104.622 210.893 104.641 210.796 104.679 210.707L111.831 193.103C111.904 192.925 112.037 192.779 112.208 192.69C112.298 192.652 112.394 192.632 112.491 192.632C112.588 192.632 112.685 192.652 112.774 192.69L119.806 195.564C121.365 196.157 122.781 197.078 123.956 198.266C124.931 199.27 125.577 200.548 125.808 201.931C126.012 203.452 125.817 205 125.242 206.422C124.933 207.214 124.659 207.919 124.419 208.504C124.179 209.089 123.887 209.795 123.561 210.552C122.959 212.004 122.011 213.286 120.8 214.286C119.714 215.13 118.384 215.595 117.01 215.611C115.362 215.6 113.733 215.249 112.225 214.578L105.091 211.67ZM110.836 209.468L113.7 210.638C114.353 210.93 115.061 211.077 115.775 211.068C116.411 211.055 117.021 210.81 117.49 210.38C118.04 209.855 118.468 209.214 118.742 208.504C118.982 207.988 119.205 207.523 119.377 207.11C119.548 206.697 119.72 206.284 119.891 205.871C120.063 205.458 120.217 204.977 120.389 204.46C120.838 203.492 120.887 202.385 120.526 201.38C120.023 200.448 119.181 199.746 118.176 199.419L115.45 198.3L110.836 209.468Z" fill="#CE1E20"/>
<path d="M125.602 219.464C125.414 219.404 125.254 219.275 125.156 219.103C125.117 219.016 125.097 218.923 125.097 218.828C125.097 218.733 125.117 218.639 125.156 218.552L130.696 200.45C130.716 200.354 130.757 200.265 130.816 200.187C130.876 200.11 130.952 200.047 131.039 200.003C131.221 199.932 131.422 199.932 131.604 200.003L135.343 201.156C135.435 201.183 135.521 201.229 135.595 201.292C135.669 201.354 135.729 201.43 135.772 201.517C135.81 201.607 135.83 201.703 135.83 201.801C135.83 201.898 135.81 201.995 135.772 202.085L130.198 220.256C130.143 220.438 130.02 220.592 129.855 220.686C129.766 220.724 129.67 220.744 129.572 220.744C129.475 220.744 129.379 220.724 129.289 220.686L125.602 219.464Z" fill="#CE1E20"/>
<path d="M135.6 222.493C135.412 222.453 135.247 222.342 135.137 222.184C135.099 222.094 135.079 221.997 135.079 221.9C135.079 221.802 135.099 221.706 135.137 221.616L139.202 203.049C139.242 202.86 139.352 202.694 139.51 202.584C139.6 202.545 139.696 202.525 139.793 202.525C139.891 202.525 139.987 202.545 140.076 202.584L147.811 204.305C149.906 204.64 151.82 205.692 153.23 207.282C154.137 208.55 154.568 210.099 154.445 211.655C154.323 213.211 153.655 214.673 152.561 215.782C151.707 216.564 150.658 217.099 149.526 217.331L151.927 225.212C151.943 225.326 151.943 225.442 151.927 225.556C151.907 225.634 151.871 225.707 151.821 225.769C151.771 225.832 151.707 225.882 151.635 225.918C151.561 225.955 151.479 225.975 151.395 225.975C151.312 225.975 151.23 225.955 151.155 225.918L147.399 225.092C147.252 225.074 147.11 225.025 146.983 224.948C146.855 224.871 146.746 224.767 146.662 224.644C146.542 224.472 146.455 224.28 146.405 224.076L144.535 217.073L141.534 216.402L140.145 222.82C140.105 223.009 139.994 223.175 139.836 223.285C139.753 223.337 139.66 223.372 139.562 223.387C139.465 223.402 139.366 223.396 139.27 223.371L135.6 222.493ZM142.46 212.375L145.77 213.098C146.126 213.21 146.5 213.249 146.871 213.214C147.242 213.178 147.603 213.069 147.931 212.892C148.217 212.694 148.459 212.439 148.642 212.143C148.825 211.847 148.945 211.516 148.994 211.171C149.161 210.514 149.069 209.817 148.737 209.226C148.517 208.917 148.236 208.657 147.911 208.462C147.587 208.267 147.226 208.14 146.851 208.091L143.558 207.368L142.46 212.375Z" fill="#CE1E20"/>
<path d="M156.592 226.709C156.495 226.706 156.4 226.681 156.314 226.636C156.228 226.592 156.153 226.528 156.094 226.451C155.973 226.295 155.918 226.097 155.94 225.9L158.101 206.972C158.106 206.875 158.132 206.781 158.176 206.695C158.221 206.609 158.283 206.533 158.358 206.473C158.516 206.358 158.713 206.308 158.907 206.335L172.438 207.884C172.633 207.907 172.812 208.006 172.935 208.159C172.997 208.232 173.041 208.318 173.065 208.411C173.088 208.503 173.091 208.599 173.073 208.693L172.764 211.429C172.757 211.525 172.731 211.619 172.687 211.705C172.643 211.791 172.581 211.867 172.507 211.928C172.35 212.048 172.154 212.103 171.958 212.083L162.714 211.016L162.268 214.939L170.843 215.92C171.038 215.943 171.217 216.042 171.341 216.195C171.446 216.365 171.494 216.564 171.478 216.763L171.22 219.379C171.214 219.473 171.187 219.564 171.143 219.647C171.099 219.73 171.037 219.803 170.963 219.861C170.89 219.928 170.802 219.976 170.707 220.003C170.612 220.03 170.512 220.034 170.414 220.015L161.84 219.035L161.376 223.078L170.86 224.162C170.957 224.168 171.051 224.194 171.136 224.238C171.222 224.283 171.298 224.345 171.358 224.421C171.418 224.497 171.462 224.586 171.485 224.681C171.509 224.776 171.512 224.875 171.495 224.971L171.186 227.707C171.161 227.899 171.07 228.075 170.929 228.206C170.852 228.267 170.764 228.311 170.669 228.334C170.575 228.358 170.476 228.361 170.38 228.344L156.592 226.709Z" fill="#CE1E20"/>
<path d="M183.74 229.084C182.115 229.113 180.503 228.777 179.023 228.103C177.77 227.527 176.718 226.586 176.005 225.402C175.253 224.063 174.863 222.55 174.873 221.014C174.873 220.222 174.873 219.293 174.873 218.45C174.873 217.607 174.873 216.643 174.873 215.817C174.921 214.295 175.365 212.812 176.159 211.515C176.914 210.338 178.009 209.419 179.298 208.882C180.782 208.253 182.388 207.965 183.997 208.039C185.2 208.041 186.396 208.221 187.547 208.573C188.567 208.886 189.524 209.375 190.377 210.018C191.163 210.621 191.807 211.391 192.263 212.272C192.705 213.195 192.928 214.208 192.915 215.232C192.925 215.311 192.916 215.391 192.89 215.466C192.863 215.541 192.818 215.608 192.76 215.662C192.634 215.777 192.468 215.838 192.297 215.834H188.37C188.161 215.852 187.953 215.79 187.787 215.662C187.614 215.501 187.494 215.291 187.444 215.06C187.296 214.212 186.837 213.451 186.158 212.926C185.476 212.51 184.692 212.295 183.894 212.307C183.435 212.272 182.974 212.33 182.538 212.478C182.102 212.626 181.7 212.86 181.356 213.167C180.632 213.971 180.25 215.027 180.293 216.11C180.207 217.71 180.173 219.345 180.207 221.031C180.136 222.113 180.486 223.18 181.184 224.008C181.519 224.328 181.915 224.577 182.348 224.739C182.782 224.902 183.243 224.975 183.705 224.954C184.501 224.982 185.29 224.792 185.986 224.403C186.686 223.911 187.166 223.164 187.324 222.321C187.374 222.09 187.494 221.88 187.667 221.719C187.848 221.61 188.056 221.556 188.267 221.564H192.212C192.295 221.564 192.377 221.581 192.454 221.613C192.53 221.646 192.6 221.693 192.658 221.754C192.717 221.807 192.762 221.874 192.789 221.949C192.816 222.024 192.824 222.105 192.812 222.184C192.794 223.205 192.535 224.207 192.057 225.109C191.572 225.976 190.905 226.728 190.102 227.312C189.231 227.934 188.255 228.395 187.221 228.671C186.086 228.972 184.914 229.111 183.74 229.084Z" fill="#CE1E20"/>
<path d="M202.21 228.292C202.114 228.303 202.017 228.294 201.925 228.264C201.834 228.234 201.749 228.185 201.678 228.12C201.605 228.058 201.546 227.982 201.505 227.896C201.463 227.81 201.441 227.716 201.438 227.621L200.203 212.513L195.059 212.925C194.96 212.938 194.86 212.93 194.765 212.9C194.671 212.87 194.583 212.82 194.51 212.753C194.374 212.628 194.288 212.456 194.27 212.272L194.012 209.14C194 209.044 194.009 208.946 194.038 208.854C194.068 208.762 194.118 208.677 194.184 208.606C194.244 208.531 194.319 208.469 194.405 208.424C194.491 208.38 194.585 208.354 194.681 208.348L210.322 207.075C210.417 207.067 210.514 207.078 210.605 207.107C210.696 207.137 210.781 207.184 210.853 207.247C210.929 207.307 210.991 207.383 211.035 207.469C211.079 207.555 211.105 207.649 211.111 207.746L211.351 210.878C211.369 211.064 211.314 211.249 211.196 211.394C211.134 211.472 211.056 211.535 210.967 211.58C210.879 211.624 210.781 211.649 210.682 211.652L205.537 212.082L206.755 227.19C206.766 227.285 206.759 227.381 206.732 227.473C206.705 227.565 206.661 227.65 206.6 227.724C206.535 227.796 206.455 227.855 206.367 227.896C206.279 227.937 206.183 227.961 206.086 227.965L202.21 228.292Z" fill="#CE1E20"/>
<path d="M224.453 225.746C222.887 226.074 221.269 226.074 219.703 225.746C218.382 225.419 217.189 224.706 216.273 223.698C215.259 222.514 214.573 221.084 214.283 219.551C214.112 218.742 213.94 217.83 213.803 217.09C213.666 216.35 213.495 215.369 213.375 214.578C213.115 213.042 213.256 211.465 213.786 210.001C214.305 208.695 215.201 207.574 216.359 206.783C217.687 205.898 219.191 205.311 220.766 205.062C222.315 204.733 223.916 204.733 225.465 205.062C226.833 205.396 228.074 206.126 229.032 207.161C230.057 208.34 230.75 209.771 231.039 211.308C231.227 212.134 231.399 213.029 231.553 213.804C231.708 214.578 231.828 215.524 231.948 216.281C232.209 217.817 232.067 219.395 231.536 220.859C231.018 222.151 230.121 223.255 228.964 224.025C227.596 224.907 226.06 225.493 224.453 225.746ZM223.699 221.599C224.157 221.538 224.599 221.384 224.996 221.148C225.394 220.911 225.74 220.596 226.014 220.222C226.571 219.286 226.743 218.169 226.494 217.107C226.374 216.247 226.254 215.387 226.117 214.698C225.98 214.01 225.808 213.184 225.637 212.393C225.486 211.63 225.176 210.909 224.728 210.276C224.367 209.79 223.863 209.429 223.287 209.244C222.679 209.095 222.043 209.095 221.435 209.244C220.813 209.339 220.224 209.587 219.72 209.966C219.243 210.347 218.891 210.863 218.708 211.446C218.495 212.19 218.46 212.974 218.605 213.735C218.725 214.543 218.862 215.335 219 216.075C219.137 216.815 219.291 217.624 219.463 218.467C219.614 219.546 220.173 220.525 221.023 221.203C221.419 221.447 221.861 221.608 222.32 221.676C222.78 221.744 223.249 221.718 223.699 221.599Z" fill="#CE1E20"/>
<path d="M238.619 222.441C238.528 222.476 238.431 222.49 238.334 222.484C238.237 222.478 238.142 222.452 238.056 222.406C237.97 222.36 237.895 222.297 237.835 222.22C237.776 222.143 237.733 222.054 237.71 221.96L232.239 203.754C232.201 203.664 232.181 203.568 232.181 203.47C232.181 203.373 232.201 203.276 232.239 203.186C232.338 203.018 232.498 202.895 232.685 202.842L240.283 200.536C242.28 199.829 244.459 199.829 246.456 200.536C247.857 201.207 248.979 202.349 249.628 203.763C250.276 205.178 250.41 206.776 250.006 208.28C249.653 209.388 248.993 210.372 248.103 211.119L254.037 216.849C254.112 216.928 254.17 217.022 254.208 217.124C254.266 217.274 254.266 217.44 254.208 217.589C254.169 217.663 254.116 217.729 254.051 217.783C253.986 217.836 253.911 217.875 253.831 217.899L250.161 219.017C250.023 219.078 249.874 219.11 249.723 219.11C249.573 219.11 249.424 219.078 249.286 219.017C249.099 218.922 248.93 218.794 248.789 218.639L243.747 213.476L240.866 214.354L242.735 220.566C242.769 220.657 242.784 220.754 242.778 220.852C242.772 220.949 242.745 221.044 242.7 221.13C242.654 221.217 242.591 221.292 242.514 221.352C242.438 221.412 242.349 221.455 242.255 221.478L238.619 222.441ZM239.648 210.276L242.889 209.295C243.602 209.126 244.219 208.681 244.604 208.056C244.76 207.756 244.853 207.427 244.877 207.089C244.9 206.752 244.854 206.413 244.741 206.094C244.571 205.44 244.152 204.878 243.575 204.528C243.23 204.375 242.856 204.295 242.478 204.295C242.1 204.295 241.726 204.375 241.38 204.528L238.139 205.509L239.648 210.276Z" fill="#CE1E20"/>
<path d="M263.297 214.027C263.114 214.087 262.915 214.087 262.731 214.027C262.641 213.989 262.56 213.932 262.492 213.861C262.424 213.79 262.371 213.706 262.337 213.614L259.85 207.849L248.703 199.022C248.667 198.978 248.627 198.937 248.583 198.902C248.545 198.862 248.515 198.815 248.497 198.764C248.437 198.615 248.437 198.448 248.497 198.299C248.524 198.222 248.568 198.152 248.624 198.093C248.68 198.033 248.748 197.986 248.823 197.955L252.253 196.51C252.479 196.419 252.73 196.419 252.956 196.51C253.123 196.549 253.277 196.632 253.402 196.751L260.262 202.016L261.137 193.412C261.166 193.24 261.218 193.072 261.291 192.913C261.41 192.695 261.605 192.53 261.84 192.449L265.184 191.003C265.259 190.969 265.341 190.951 265.424 190.951C265.507 190.951 265.589 190.969 265.664 191.003C265.807 191.063 265.923 191.173 265.99 191.313V191.468C265.999 191.525 265.999 191.583 265.99 191.64L264.687 205.836L267.173 211.601C267.211 211.69 267.231 211.787 267.231 211.885C267.231 211.982 267.211 212.079 267.173 212.168C267.138 212.261 267.083 212.344 267.012 212.413C266.94 212.481 266.855 212.533 266.762 212.564L263.297 214.027Z" fill="#CE1E20"/>
<path d="M278.921 198.902C278.757 199.004 278.562 199.041 278.372 199.005C278.184 198.954 278.024 198.83 277.926 198.661L276.486 196.321C276.429 196.242 276.39 196.152 276.372 196.057C276.355 195.962 276.358 195.864 276.383 195.77C276.404 195.673 276.446 195.581 276.505 195.501C276.564 195.421 276.639 195.354 276.726 195.306L284.495 190.505C284.658 190.403 284.854 190.366 285.043 190.401C285.138 190.424 285.226 190.466 285.303 190.525C285.38 190.585 285.443 190.66 285.489 190.746L286.93 193.086C286.987 193.164 287.025 193.254 287.043 193.349C287.061 193.445 287.057 193.543 287.033 193.636C286.984 193.831 286.861 193.998 286.69 194.101L278.921 198.902Z" fill="#CE1E20"/>
</svg>
