<svg width="262" height="40" viewBox="0 0 262 40" fill="none" xmlns="http://www.w3.org/2000/svg">
<rect width="13.0144" height="13.3569" fill="#CE1E20"/>
<rect x="209.6" width="13.0144" height="13.3569" fill="#CE1E20"/>
<rect x="105.142" width="13.0144" height="13.3569" fill="#CE1E20"/>
<rect x="52.7424" width="13.0144" height="13.3569" fill="#CE1E20"/>
<rect x="157.543" width="13.0144" height="13.3569" fill="#CE1E20"/>
<rect x="26.3713" width="13.0144" height="13.3569" fill="#CE1E20"/>
<rect x="235.629" width="13.3569" height="13.3569" fill="#CE1E20"/>
<rect x="131.514" width="13.0144" height="13.3569" fill="#CE1E20"/>
<rect x="78.7712" width="13.3569" height="13.3569" fill="#CE1E20"/>
<rect x="183.914" width="13.0144" height="13.3569" fill="#CE1E20"/>
<rect x="13.0144" y="13.3567" width="13.3569" height="13.0144" fill="#CE1E20"/>
<rect y="26.0759" width="13.3569" height="13.0144" fill="#CE1E20"/>
<rect x="222.614" y="13.3567" width="13.0144" height="13.0144" fill="#CE1E20"/>
<rect x="209.6" y="26.0759" width="13.0144" height="13.0144" fill="#CE1E20"/>
<rect x="118.157" y="13.3567" width="13.3569" height="13.0144" fill="#CE1E20"/>
<rect x="105.142" y="26.0759" width="13.3569" height="13.0144" fill="#CE1E20"/>
<rect x="65.7568" y="13.3567" width="13.0144" height="13.0144" fill="#CE1E20"/>
<rect x="52.7426" y="26.0759" width="13.0144" height="13.0144" fill="#CE1E20"/>
<rect x="170.557" y="13.3567" width="13.3569" height="13.0144" fill="#CE1E20"/>
<rect x="157.542" y="26.0759" width="13.3569" height="13.0144" fill="#CE1E20"/>
<rect x="39.3856" y="13.3567" width="13.3569" height="13.0144" fill="#CE1E20"/>
<rect x="26.3713" y="26.0759" width="13.3569" height="13.0144" fill="#CE1E20"/>
<rect x="248.986" y="13.3567" width="13.0144" height="13.0144" fill="#CE1E20"/>
<rect x="235.971" y="26.0759" width="13.0144" height="13.0144" fill="#CE1E20"/>
<rect x="144.528" y="13.3567" width="13.0144" height="13.0144" fill="#CE1E20"/>
<rect x="131.514" y="26.0759" width="13.0144" height="13.0144" fill="#CE1E20"/>
<rect x="92.1281" y="13.3567" width="13.0144" height="13.0144" fill="#CE1E20"/>
<rect x="79.1138" y="26.0759" width="13.0144" height="13.0144" fill="#CE1E20"/>
<rect x="196.928" y="13.3567" width="13.0144" height="13.0144" fill="#CE1E20"/>
<rect x="183.914" y="26.0759" width="13.0144" height="13.0144" fill="#CE1E20"/>
</svg>
